<svg xmlns="http://www.w3.org/2000/svg" width="1024" height="1024" viewBox="0 0 1024 1024">
  <defs>
    <linearGradient id="bg" x1="120" y1="80" x2="900" y2="944" gradientUnits="userSpaceOnUse">
      <stop offset="0" stop-color="#1f8d88"/>
      <stop offset="1" stop-color="#0f4f62"/>
    </linearGradient>
    <linearGradient id="panel" x1="220" y1="220" x2="804" y2="804" gradientUnits="userSpaceOnUse">
      <stop offset="0" stop-color="#fbf8ef"/>
      <stop offset="1" stop-color="#e9f0f1"/>
    </linearGradient>
    <linearGradient id="accent" x1="282" y1="278" x2="754" y2="726" gradientUnits="userSpaceOnUse">
      <stop offset="0" stop-color="#f6b24a"/>
      <stop offset="1" stop-color="#f06f38"/>
    </linearGradient>
    <filter id="shadow" x="-20%" y="-20%" width="140%" height="140%">
      <feDropShadow dx="0" dy="18" stdDeviation="24" flood-color="#072b38" flood-opacity="0.28"/>
    </filter>
  </defs>

  <rect x="72" y="72" width="880" height="880" rx="210" fill="url(#bg)"/>

  <g filter="url(#shadow)">
    <rect x="194" y="192" width="636" height="636" rx="128" fill="url(#panel)"/>
    <rect x="258" y="268" width="508" height="388" rx="56" fill="url(#accent)"/>
    <path d="M316 576l96-112 86 94 84-124 126 142H316z" fill="#fff3df" opacity="0.96"/>
    <circle cx="378" cy="366" r="40" fill="#fff3df" opacity="0.96"/>
  </g>

  <g>
    <path d="M502 706c-30 0-54 24-54 54s24 54 54 54h100v68l132-122-132-122v68H502z" fill="#fff4da"/>
    <path d="M522 872c-54 0-98-44-98-98s44-98 98-98h56v52h-56c-25 0-46 21-46 46s21 46 46 46h56v52h-56z" fill="#073847" opacity="0.2"/>
  </g>

  <g opacity="0.18">
    <circle cx="816" cy="260" r="34" fill="#ffffff"/>
    <circle cx="226" cy="760" r="22" fill="#ffffff"/>
    <circle cx="774" cy="814" r="16" fill="#ffffff"/>
  </g>
</svg>
