<svg width="16" height="16" viewBox="0 0 16 16" fill="none" xmlns="http://www.w3.org/2000/svg">
<path d="M6.88317 3.55637L10.7388 5.49663C12.9094 6.58895 13.9946 7.13513 13.9946 8C13.9946 8.86487 12.9094 9.41107 10.7388 10.5034L6.88317 12.4437C4.42338 13.6815 3.19348 14.3005 2.52397 13.8567C2.38216 13.7627 2.25867 13.6434 2.15958 13.5046C1.69176 12.8494 2.25604 11.5873 3.3846 9.0632C3.59955 8.5824 3.70702 8.34207 3.72292 8.08793C3.72658 8.02933 3.72658 7.97067 3.72292 7.91207C3.70702 7.65793 3.59955 7.4176 3.3846 6.9368C2.25604 4.41265 1.69176 3.15057 2.15958 2.49538C2.25867 2.35661 2.38216 2.23729 2.52397 2.1433C3.19348 1.69955 4.42338 2.31849 6.88317 3.55637Z" stroke="#4422A1" stroke-width="1.5" stroke-linecap="round" stroke-linejoin="round"/>
<path d="M6.32812 8H8.9948" stroke="#4422A1" stroke-width="1.5" stroke-linecap="round" stroke-linejoin="round"/>
</svg>
